PathFileType	4	(X/Y/Z)	C:\Users\Basilio\Documents\Thesis Gigler\squatting_fais\c3dfiles\044\SLS_front_pre5\markers_experimental.trc
DataRate	CameraRate	NumFrames	NumMarkers	Units	OrigDataRate	OrigDataStartFrame	OrigNumFrames
200.000000	200.000000	4	60	mm	200.000000	891	1427
Frame#	Time	FHD			LBHD			RBHD			C7			T10			LSHO			LUUPA			LMUPA			LDUPA			LLEP			LMEP			LUL			LRFIN			RSHO			RUPA1			RMUPA			RDUPA			RLEP			RMEP			RUL			RUFIN			LASI			RASI			USACR			LSACR			RSACR			LTHI1			LTHI2			LTHI3			LTHI4			LLFC			LMFC			LTIB1			LTIB2			LTIB3			LTIB4			LLMAL			LMMAL			LHEE			LMT1			LMT2			LMT5			RTHI			RTHI2			RTHI3			RTHI4			RLFC			RMFC			RTIB1			RTIB2			RTIB3			RTIB4			RLMAL			RHEE			RMT1			RMT2			RMT5			CLAV			RMMAL			LRAD			
		X1	Y1	Z1	X2	Y2	Z2	X3	Y3	Z3	X4	Y4	Z4	X5	Y5	Z5	X6	Y6	Z6	X7	Y7	Z7	X8	Y8	Z8	X9	Y9	Z9	X10	Y10	Z10	X11	Y11	Z11	X12	Y12	Z12	X13	Y13	Z13	X14	Y14	Z14	X15	Y15	Z15	X16	Y16	Z16	X17	Y17	Z17	X18	Y18	Z18	X19	Y19	Z19	X20	Y20	Z20	X21	Y21	Z21	X22	Y22	Z22	X23	Y23	Z23	X24	Y24	Z24	X25	Y25	Z25	X26	Y26	Z26	X27	Y27	Z27	X28	Y28	Z28	X29	Y29	Z29	X30	Y30	Z30	X31	Y31	Z31	X32	Y32	Z32	X33	Y33	Z33	X34	Y34	Z34	X35	Y35	Z35	X36	Y36	Z36	X37	Y37	Z37	X38	Y38	Z38	X39	Y39	Z39	X40	Y40	Z40	X41	Y41	Z41	X42	Y42	Z42	X43	Y43	Z43	X44	Y44	Z44	X45	Y45	Z45	X46	Y46	Z46	X47	Y47	Z47	X48	Y48	Z48	X49	Y49	Z49	X50	Y50	Z50	X51	Y51	Z51	X52	Y52	Z52	X53	Y53	Z53	X54	Y54	Z54	X55	Y55	Z55	X56	Y56	Z56	X57	Y57	Z57	X58	Y58	Z58	X59	Y59	Z59	X60	Y60	Z60	

892	4.455	-202.3948059082032	1646.09521484375	-1051.801635742188	-335.0374450683594	1609.103149414063	-1129.448120117188	-378.9330749511719	1593.88525390625	-969.631286621094	-399.0947875976564	1433.103881835938	-1050.305908203125	-465.4362182617189	1144.694458007813	-1012.352966308594	-309.7083740234376	1440.955200195313	-1191.800048828125	-147.5047149658203	1410.002563476563	-1286.106201171875	-120.3235244750977	1421.330932617188	-1244.58154296875	-77.91510009765626	1403.7841796875	-1286.563598632813	-20.2490520477295	1400.637451171875	-1274.090454101563	-33.10436248779298	1326.0537109375	-1258.480590820313	231.6844024658204	1406.85693359375	-1152.434204101563	233.9253997802735	1424.18896484375	-1051.62060546875	-309.4937438964844	1436.261474609375	-893.926940917969	-160.9210357666016	1405.479248046875	-787.6230468750002	-129.5228424072266	1418.609008789063	-825.809753417969	-91.63994598388673	1401.005249023438	-782.988708496094	-29.7309970855713	1401.131713867188	-791.1243286132815	-35.91158676147462	1320.162841796875	-804.0383300781252	222.6501464843751	1407.035278320313	-916.2527465820315	234.4476623535157	1396.281005859375	-1031.90234375	-337.8558044433594	926.2282714843752	-1100.230590820313	-329.1351928710938	925.2713012695315	-885.554626464844	-495.8248291015626	988.4105224609377	-983.4944458007815	-508.0570068359376	955.3272705078127	-1007.571166992188	-503.2355346679689	960.9216308593752	-952.0090942382815	-334.9277648925782	705.2816162109376	-1171.2216796875	-260.7663879394532	662.9672851562501	-1176.834594726563	-223.0882263183594	691.1473999023439	-1170.794311523438	-250.6393737792969	604.3982543945314	-1161.08251953125	-157.3186798095703	485.0049438476564	-1141.552490234375	-145.5995025634766	492.9580383300782	-1021.464721679688	-181.0391693115235	324.6477355957032	-1041.156127929688	-224.9631042480469	281.8094787597657	-1104.276611328125	-194.6116485595704	273.1583251953126	-1066.474609375	-240.8824462890626	215.1461486816407	-1026.168579101563	-335.1101989746094	123.7717514038086	-1060.989990234375	-312.4084777832032	138.7919616699219	-976.5372314453127	-406.7401428222657	111.180648803711	-1007.866638183594	-201.2217559814454	61.5269012451172	-985.4769287109377	-199.0114288330079	62.77375411987306	-1032.53564453125	-237.7303161621094	50.3259620666504	-1078.22998046875	-253.1386413574219	707.8885498046876	-797.2266235351565	-184.8468475341797	707.1011352539064	-802.0115966796877	-167.2298583984375	733.0497436523439	-813.8090820312502	-140.5931396484375	636.1463012695314	-817.5220947265627	-69.59527587890626	561.2327880859376	-824.4346313476565	-79.15704345703126	546.9547119140626	-943.6898193359377	18.11176109313965	459.8901672363282	-852.923034667969	-19.53363418579102	370.8795166015626	-798.068786621094	19.69707489013672	377.9969177246094	-819.925964355469	44.41993713378907	332.4926452636719	-845.137878417969	36.68995666503907	168.0146484375	-818.5649414062502	-1.225049495697022	101.6503829956055	-855.2797851562502	192.2735443115235	177.3578338623047	-897.5526123046877	200.1977996826172	184.6900177001953	-861.4248657226565	179.2425689697266	156.3895263671875	-804.6477050781252	-264.9738464355469	1377.850830078125	-1049.594848632813	46.93448638916016	174.6886596679688	-903.7596435546877	219.7878112792969	1358.32666015625	-1103.591430664063	
893	4.46	-202.6268920898438	1647.91162109375	-1051.520751953125	-335.2142028808594	1610.576904296875	-1129.187866210938	-378.9997863769532	1595.440307617188	-969.5025634765627	-399.3790588378907	1434.76513671875	-1050.4443359375	-465.3396301269532	1146.062377929688	-1012.492980957031	-309.4673156738282	1442.22265625	-1191.671752929688	-147.5556182861328	1411.512939453125	-1285.8701171875	-120.2594223022461	1422.726318359375	-1244.393432617188	-77.81636810302736	1405.303344726563	-1286.26806640625	-20.20387649536133	1402.099487304688	-1273.68896484375	-33.26305389404298	1327.970825195313	-1258.03515625	231.6069946289063	1408.770629882813	-1152.268310546875	234.1338043212891	1425.583740234375	-1051.237915039063	-309.8517761230469	1437.841186523438	-893.798522949219	-160.9907836914063	1407.010131835938	-787.3807373046877	-129.6173248291016	1420.116577148438	-825.629333496094	-91.64413452148439	1402.207153320313	-782.6184692382815	-29.88206100463868	1402.477416992188	-790.4639282226565	-36.01611709594727	1321.662963867188	-803.8001708984377	222.4257354736329	1408.913330078125	-915.8762817382815	233.634506225586	1398.931884765625	-1031.445556640625	-337.4141845703126	927.5295410156252	-1100.307983398438	-328.9653625488282	926.718933105469	-885.409118652344	-495.4896850585939	989.8635253906252	-983.650085449219	-507.605438232422	956.7967529296877	-1007.816101074219	-502.9627990722657	962.1375732421877	-952.1533203125002	-334.6368408203126	706.8278198242189	-1170.96875	-260.8499755859376	663.8531494140626	-1176.395629882813	-222.9307708740235	691.9433593750001	-1170.376831054688	-251.1064453125001	605.3544921875001	-1160.673828125	-158.4559631347657	486.1880493164064	-1140.824340820313	-146.5716552734375	493.4103088378907	-1020.527465820313	-181.4893798828125	324.8270874023438	-1040.615234375	-225.3265991210938	282.1015319824219	-1104.020385742188	-195.0193939208985	273.5798034667969	-1066.238525390625	-241.1220855712891	215.2764434814454	-1025.992309570313	-335.0751953125001	123.9431457519532	-1060.99658203125	-312.5561828613282	138.8790893554688	-976.4808349609377	-406.7664489746095	111.1738815307617	-1007.857421875	-201.0313568115235	61.22204208374025	-985.3507080078127	-199.0243225097657	62.80472564697267	-1032.531616210938	-238.0207977294922	50.96800613403322	-1078.1005859375	-253.4420166015626	709.0064697265626	-797.0531005859377	-185.2422027587891	707.7879028320314	-801.9425048828127	-167.384506225586	733.8770751953126	-813.5670166015627	-141.0123443603516	636.6987304687501	-817.398132324219	-70.33463287353517	561.6150512695314	-824.2437133789065	-79.91043090820314	547.3859863281251	-943.4751586914065	16.88017272949219	460.2241821289064	-852.656677246094	-21.22391128540039	371.7019042968751	-797.8489379882815	18.63551330566407	378.1869812011719	-819.8459472656252	43.02642440795899	332.3861999511719	-844.9065551757815	34.86961746215821	168.2196655273438	-818.1639404296877	-3.399335622787476	101.7052307128907	-854.7603759765627	190.194564819336	176.9919586181641	-897.144226074219	198.4060974121094	184.114486694336	-861.0120239257815	177.2566986083985	155.8899688720703	-803.9368896484377	-265.2206420898438	1379.813720703125	-1049.335083007813	44.97686386108399	174.5845336914063	-903.4465942382815	219.8005981445313	1359.57763671875	-1103.171142578125	
894	4.465	-202.3688049316407	1649.5537109375	-1051.216064453125	-336.0574035644532	1611.694213867188	-1129.050903320313	-379.0347290039063	1596.950317382813	-969.362976074219	-399.1554565429689	1436.029663085938	-1050.1064453125	-465.1990661621095	1147.54638671875	-1012.568786621094	-309.7013244628907	1444.008544921875	-1191.5283203125	-147.6498565673828	1412.839233398438	-1285.569213867188	-120.2046890258789	1424.369506835938	-1244.043579101563	-77.49751281738283	1406.796020507813	-1286.051025390625	-20.65710258483887	1403.907348632813	-1273.355102539063	-32.95451736450196	1329.114624023438	-1257.946166992188	232.0325469970704	1409.918701171875	-1151.752685546875	234.0820617675782	1427.063720703125	-1050.843627929688	-309.8580932617188	1439.228881835938	-893.6375732421877	-161.1785736083985	1408.298828125	-787.020202636719	-129.8025970458985	1421.573364257813	-825.3641357421877	-91.79811859130861	1403.68115234375	-782.4233398437502	-29.9989128112793	1404.01953125	-790.3415527343752	-36.20197677612305	1323.064208984375	-803.7300415039065	222.332260131836	1410.321655273438	-915.4316406250002	234.0022735595704	1399.486572265625	-1031.020141601563	-337.1027832031251	929.024108886719	-1100.184814453125	-328.7727966308594	928.2102661132815	-885.5668945312502	-495.3816833496095	991.3308715820315	-983.8381958007815	-507.6090393066407	958.298034667969	-1007.927917480469	-502.6956481933595	963.8247680664065	-952.3897094726565	-334.3527526855469	707.7891845703126	-1171.496215820313	-260.8090209960938	664.5884399414064	-1176.005737304688	-223.0483703613282	692.5657958984376	-1169.842651367188	-251.4262237548829	606.1190795898439	-1160.146362304688	-159.02734375	486.7795715332032	-1140.195556640625	-147.3633422851563	493.9324035644532	-1019.961853027344	-181.7363433837891	325.2356262207032	-1040.421264648438	-225.5744781494141	282.4436950683594	-1103.789672851563	-195.5110626220704	274.2909851074219	-1065.662353515625	-241.2012481689454	215.3517150878907	-1025.904296875	-334.9894409179688	124.0270156860352	-1060.912353515625	-312.6559753417969	138.9935302734375	-976.3563232421877	-406.740447998047	111.2023010253907	-1007.858703613281	-201.2374725341797	61.37036514282228	-985.1189575195315	-199.0204315185547	62.81150054931642	-1032.478271484375	-238.0748748779297	50.99431228637697	-1078.07763671875	-253.5949249267579	709.8776245117189	-797.0507812500002	-185.6130676269532	708.4998779296876	-801.631286621094	-167.6355438232422	734.6875000000001	-813.391784667969	-141.8166046142578	637.4197998046876	-817.007507324219	-71.19161987304689	562.1467895507814	-823.969421386719	-80.47593688964845	548.0227050781251	-943.3845825195315	15.90021991729737	460.3806152343751	-852.4072265625002	-22.22443199157715	371.4623413085938	-797.0969848632815	16.85080718994141	378.5366210937501	-819.2114868164065	41.31859970092774	332.5000000000001	-844.462585449219	33.11796951293946	168.1429595947266	-817.7143554687502	-5.665939331054688	102.6885147094727	-854.9294433593752	188.1809387207032	176.6410217285157	-896.7226562500002	196.3650665283204	183.8762664794922	-860.6956176757815	175.313232421875	155.5417785644532	-803.8391113281252	-265.2315063476563	1380.996704101563	-1049.106567382813	43.09618759155274	174.8324432373047	-903.041198730469	219.7023010253907	1360.908813476563	-1102.764770507813	
895	4.47	-202.4916534423829	1651.042846679688	-1051.266479492188	-335.0139160156251	1613.909301757813	-1128.776489257813	-379.2885437011719	1598.649780273438	-969.1746826171877	-399.4670410156251	1438.08544921875	-1050.1083984375	-464.9397583007814	1148.848022460938	-1012.631774902344	-309.4833374023438	1445.404052734375	-1191.369750976563	-147.4423522949219	1414.473510742188	-1285.39892578125	-120.1360855102539	1425.853637695313	-1243.979125976563	-77.65427398681642	1408.43701171875	-1285.719116210938	-19.95527458190918	1405.194580078125	-1273.135131835938	-32.84003829956055	1329.88525390625	-1257.1396484375	231.777084350586	1411.889892578125	-1151.459838867188	233.9473266601563	1428.713012695313	-1050.330444335938	-310.0925903320313	1441.03173828125	-893.5997314453127	-161.5004119873047	1409.976318359375	-786.898132324219	-129.9331970214844	1423.1513671875	-825.2543945312502	-92.02418518066408	1405.308837890625	-782.2437744140627	-30.13504791259766	1405.441772460938	-790.065612792969	-36.24558639526368	1324.682373046875	-803.442565917969	222.339828491211	1412.004760742188	-915.1724853515627	233.945541381836	1401.160278320313	-1030.64013671875	-336.5677795410157	930.1619873046877	-1100.28857421875	-328.5847778320313	929.5797119140627	-885.4168701171877	-495.0120239257814	992.6651611328127	-984.0776367187502	-507.1452636718751	959.6181640625002	-1008.123107910156	-502.3205871582032	965.027770996094	-952.5913696289065	-334.6093444824219	708.6739501953126	-1170.552612304688	-260.8987121582032	665.4823608398439	-1175.594360351563	-223.4887695312501	693.8180541992189	-1169.526733398438	-251.5946350097657	606.8894042968751	-1159.723754882813	-159.6954040527344	487.2347106933595	-1139.6552734375	-148.1585235595703	494.2557373046876	-1019.444213867188	-182.3438873291016	325.7279052734376	-1039.785522460938	-225.7655181884766	282.8265686035157	-1103.525024414063	-195.8207702636719	274.7767639160157	-1065.376220703125	-241.549301147461	215.5654602050782	-1025.540771484375	-334.9950256347657	124.1313781738282	-1060.83544921875	-312.7380676269532	139.0384368896485	-976.261657714844	-406.7564697265626	111.1493835449219	-1007.825439453125	-200.8999633789063	60.90999984741212	-985.148620605469	-198.994125366211	62.82174682617189	-1032.4326171875	-237.8410034179688	51.03153228759767	-1078.138793945313	-254.0389556884766	711.1744384765626	-796.9873046875002	-185.926025390625	709.3394775390626	-801.2947387695315	-167.8752593994141	735.4043579101564	-813.1679687500002	-142.4478912353516	638.2035522460939	-816.8359985351565	-71.72164916992189	562.5231323242189	-823.8508300781252	-81.26908111572267	548.4680786132814	-943.165466308594	15.01436614990235	460.5459899902345	-852.1759033203127	-23.65714073181153	372.0788574218751	-797.2590332031252	15.80340099334717	378.4385375976563	-819.1228637695315	39.77906799316407	333.1694946289063	-844.1655273437502	31.41621971130372	167.9428100585938	-817.6096801757815	-7.388431072235109	102.2145080566407	-854.3728637695315	186.6284484863282	176.3677215576172	-896.3294067382815	194.2953491210938	183.7354888916016	-860.849304199219	173.1905059814453	155.5634918212891	-803.3704833984377	-265.2462463378907	1382.909912109375	-1049.069213867188	41.09788513183594	174.9534149169922	-902.4060668945315	219.874496459961	1363.182250976563	-1102.322265625	
